<?xml version="1.0" encoding="utf-8"?>
<!-- Generator: Adobe Illustrator 27.0.0, SVG Export Plug-In . SVG Version: 6.00 Build 0)  -->
<svg version="1.1" id="レイヤー_1" xmlns="http://www.w3.org/2000/svg" xmlns:xlink="http://www.w3.org/1999/xlink" x="0px"
	 y="0px" viewBox="0 0 144 85.6" style="enable-background:new 0 0 144 85.6;" xml:space="preserve">
<style type="text/css">
	.st0{fill:#00A0E9;}
	.st1{fill:#1D2088;}
</style>
<g id="レイヤー_2_00000115504732131743324390000004977838210177845684_">
	<g id="レイヤー_1-2">
		<path class="st0" d="M140.7,17.3l-14.9,45.1h-4.7l-8.4-26.2c-0.3-0.8-1-1.2-1.8-1.2l0,0c-0.8,0-1.5,0.5-1.7,1.3l-8.2,26H77.9
			l-3-9.3c-0.2-0.8-0.9-1.3-1.7-1.3l0,0c-0.8,0-1.5,0.5-1.7,1.2l-4.7,13.6h-18c-0.8,0-1.5,0.5-1.8,1.3l-2.6,9.2L26.8,16.7
			c-0.3-1-1.3-1.5-2.3-1.2c-0.6,0.2-1,0.6-1.2,1.2l-16,49h-7.3v3.7h8.7c0.8,0,1.5-0.5,1.7-1.3l14.6-44.6l17.8,60.9
			c0.2,0.8,1,1.3,1.8,1.3l0,0c0.8,0,1.5-0.5,1.8-1.3l4-14h17.9c0.8,0,1.5-0.5,1.7-1.3l3.3-9.7l1.8,5.4c0.2,0.7,0.9,1.3,1.7,1.3h25.8
			c0.8,0,1.5-0.5,1.8-1.3l6.8-21.8l7,22c0.2,0.8,1,1.3,1.8,1.3h7.6l0,0c0.7-0.1,1.3-0.6,1.5-1.2l15.4-46.5L140.7,17.3z"/>
		<path class="st0" d="M18.9,12.1c-0.1-0.1-0.1-0.2-0.1-0.4c0.1-2.4,2.2-4.3,4.7-4.2c0.8,0,1.6,0.3,2.3,0.8c0.3,0.2,0.4,0.6,0.2,1
			c0,0,0,0,0,0c-0.2,0.3-0.7,0.4-1,0.2c-1.4-1-3.2-0.6-4.2,0.7c-0.3,0.5-0.5,1-0.5,1.5c0,0.4-0.4,0.7-0.8,0.7c0,0,0,0,0,0
			C19.3,12.5,19,12.4,18.9,12.1z"/>
		<path class="st0" d="M19.6,12.7L19.6,12.7c-0.4,0-0.7-0.2-0.8-0.5c-0.1-0.1-0.1-0.3-0.1-0.4c0.1-1.7,1.1-3.1,2.6-3.9
			c0.6-0.3,1.3-0.5,2-0.5c1,0,1.9,0.3,2.7,0.8c0.4,0.3,0.5,0.8,0.2,1.2c-0.3,0.4-0.9,0.5-1.3,0.2c-1.3-0.9-3-0.6-3.9,0.7
			c-0.3,0.4-0.5,0.9-0.5,1.5C20.4,12.3,20.1,12.7,19.6,12.7z M23.3,7.8c-0.6,0-1.3,0.1-1.9,0.4c-1.4,0.7-2.3,2-2.4,3.6
			c0,0.1,0,0.2,0,0.3c0.1,0.2,0.2,0.3,0.4,0.3l0,0c0.3,0,0.5-0.2,0.5-0.5c0.1-1.2,0.8-2.2,1.8-2.7c1-0.5,2.3-0.4,3.2,0.3
			c0.2,0.2,0.6,0.2,0.7,0c0.2-0.2,0.2-0.6,0-0.7c0,0-0.1,0-0.1-0.1C25,8.1,24.2,7.8,23.3,7.8z"/>
		<path class="st0" d="M12.1,12.8C12,12.6,12,12.4,12,12.2c0.4-6.4,5.9-11.3,12.3-10.9c2.1,0.1,4.2,0.9,6,2.1
			c0.6,0.4,0.7,1.2,0.3,1.8s-1.2,0.7-1.8,0.3c-4.1-2.9-9.8-1.9-12.7,2.2c-1,1.4-1.5,3-1.6,4.7c0,0.7-0.6,1.2-1.3,1.2
			C12.7,13.5,12.3,13.2,12.1,12.8z"/>
		<path class="st0" d="M13.3,13.7L13.3,13.7c-0.6,0-1.1-0.3-1.4-0.8c-0.1-0.2-0.1-0.5-0.1-0.7C12.1,5.9,17.3,1,23.6,1.1
			c2.4,0,4.8,0.7,6.8,2.2c0.7,0.5,0.8,1.4,0.4,2c-0.3,0.4-0.7,0.6-1.2,0.6c-0.3,0-0.6-0.1-0.8-0.3c-4-2.8-9.6-1.9-12.4,2.2
			c-0.9,1.3-1.5,2.9-1.6,4.6C14.7,13.1,14,13.7,13.3,13.7z M23.6,1.4c-1.7,0-3.4,0.4-5,1.1c-3.7,1.8-6.2,5.5-6.4,9.6
			c0,0.6,0.4,1.1,1,1.1c0,0,0,0,0,0c0.6,0,1.1-0.4,1.1-1c0.3-4.9,4.4-8.7,9.2-8.7c1.9,0,3.8,0.6,5.3,1.7c0.5,0.3,1.2,0.2,1.5-0.3
			c0.3-0.5,0.2-1.2-0.3-1.5c0,0,0,0,0,0C28.3,2.1,25.9,1.4,23.6,1.4z"/>
		<path class="st1" d="M50.6,0c0.1,0,0.1,0.1,0.1,0.1V1c0,0.1,0,0.1-0.1,0.1h-1v5.5c0,0.1,0,0.1-0.1,0.1c0,0,0,0,0,0h-0.9
			c-0.1,0-0.1,0-0.1-0.1V1.1h-1c-0.1,0-0.1-0.1-0.1-0.1V0.1c0-0.1,0-0.1,0.1-0.1c0,0,0,0,0,0H50.6z"/>
		<path class="st1" d="M54.8,1.2c-0.1-0.6,0.3-1.1,0.9-1.2c0.1,0,0.2,0,0.3,0h1c0.6-0.1,1.1,0.3,1.2,0.9c0,0.1,0,0.2,0,0.3v4.3
			c0.1,0.6-0.4,1.1-1,1.2c-0.1,0-0.2,0-0.3,0h-1c-0.6,0.1-1.1-0.4-1.2-1c0-0.1,0-0.2,0-0.3V1.2z M56.8,5.7c0.2,0,0.3-0.1,0.3-0.3
			c0,0,0-0.1,0-0.1V1.4c0-0.2-0.1-0.3-0.3-0.3c0,0,0,0-0.1,0h-0.5c-0.2,0-0.3,0.1-0.3,0.3c0,0,0,0,0,0.1v3.9c0,0.2,0.1,0.3,0.3,0.3
			c0,0,0.1,0,0.1,0H56.8z"/>
		<path class="st1" d="M65.1,6.8c-0.1,0-0.2,0-0.2-0.1l-1-2.5l-0.3,0.6v1.9c0,0.1,0,0.2-0.1,0.2c0,0,0,0,0,0h-0.8
			c-0.1,0-0.2,0-0.2-0.1c0,0,0,0,0,0V0.2c0-0.1,0-0.2,0.1-0.2c0,0,0,0,0,0h0.8c0.1,0,0.2,0,0.2,0.1c0,0,0,0,0,0v2.6l1.3-2.7
			C64.9,0.1,65,0,65.1,0H66c0.1,0,0.2,0.1,0.1,0.2l-1.4,3l1.5,3.4c0.1,0.1,0,0.2-0.1,0.2L65.1,6.8z"/>
		<path class="st1" d="M74.2,0c0.1,0,0.2,0.1,0.1,0.2L72.8,4v2.6c0,0.1,0,0.2-0.1,0.2c0,0,0,0,0,0h-0.8c-0.1,0-0.2,0-0.2-0.1
			c0,0,0,0,0,0V4l-1.5-3.8c-0.1-0.1,0-0.2,0.1-0.2h0.8c0.1,0,0.2,0.1,0.2,0.1l1,2.4l0.9-2.4c0-0.1,0.1-0.1,0.2-0.1H74.2z"/>
		<path class="st1" d="M78.3,1.2c-0.1-0.6,0.3-1.1,0.9-1.2c0.1,0,0.2,0,0.3,0h1c0.6-0.1,1.1,0.3,1.2,0.9c0,0.1,0,0.2,0,0.3v4.3
			c0.1,0.6-0.3,1.1-0.9,1.2c-0.1,0-0.2,0-0.3,0h-1c-0.6,0.1-1.1-0.4-1.2-1c0-0.1,0-0.2,0-0.3V1.2z M80.3,5.7c0.2,0,0.3-0.1,0.3-0.3
			c0,0,0-0.1,0-0.1V1.4c0-0.2-0.1-0.3-0.3-0.3c0,0,0,0-0.1,0h-0.5c-0.2,0-0.3,0.1-0.3,0.3c0,0,0,0.1,0,0.1v3.9
			c0,0.2,0.1,0.3,0.3,0.3c0,0,0.1,0,0.1,0H80.3z"/>
		<path class="st1" d="M50.9,16.8c0,0.1,0,0.1-0.1,0.1h-2.1v1.7h1.6c0.1,0,0.1,0.1,0.1,0.1c0,0,0,0,0,0v0.8c0,0.1,0,0.1-0.1,0.1
			c0,0,0,0,0,0h-1.6v1.7h2.1c0.1,0,0.1,0,0.1,0.1v0.8c0,0.1,0,0.1-0.1,0.1h-3.1c-0.1,0-0.1,0-0.1-0.1v-6.5c0-0.1,0-0.1,0.1-0.1
			c0,0,0,0,0,0h3.1c0.1,0,0.1,0,0.1,0.1V16.8z"/>
		<path class="st1" d="M56.3,21.5h2c0.1,0,0.1,0,0.1,0.1v0.8c0,0.1,0,0.1-0.1,0.1h-3c-0.1,0-0.1,0-0.1-0.1c0,0,0,0,0,0v-6.5
			c0-0.1,0.1-0.1,0.1-0.1c0,0,0,0,0,0h0.9c0.1,0,0.1,0,0.1,0.1c0,0,0,0,0,0L56.3,21.5z"/>
		<path class="st1" d="M66,16.8c0,0.1,0,0.1-0.1,0.1h-2.1v1.7h1.6c0.1,0,0.1,0,0.1,0.1c0,0,0,0,0,0v0.8c0,0.1,0,0.1-0.1,0.1
			c0,0,0,0,0,0h-1.6v1.7h2.1c0.1,0,0.1,0,0.1,0.1v0.8c0,0.1,0,0.1-0.1,0.1h-3.1c-0.1,0-0.1,0-0.1-0.1v-6.5c0-0.1,0-0.1,0.1-0.1
			c0,0,0,0,0,0h3.1c0.1,0,0.1,0,0.1,0.1V16.8z"/>
		<path class="st1" d="M73.7,17.9c0,0.1,0,0.1-0.1,0.1c0,0,0,0,0,0h-0.8c-0.1,0-0.1,0-0.1-0.1c0,0,0,0,0,0v-0.7
			c0-0.2-0.1-0.3-0.3-0.3c0,0,0,0-0.1,0h-0.4c-0.2,0-0.3,0.1-0.3,0.3v3.9c0,0.2,0.1,0.3,0.3,0.3c0,0,0.1,0,0.1,0h0.4
			c0.2,0,0.3-0.1,0.3-0.3c0,0,0-0.1,0-0.1v-0.7c0-0.1,0-0.1,0.1-0.1c0,0,0,0,0,0h0.8c0.1,0,0.1,0,0.1,0.1c0,0,0,0,0,0v0.9
			c0.1,0.6-0.4,1.2-1,1.2c-0.1,0-0.2,0-0.3,0h-0.9c-0.6,0.1-1.2-0.4-1.2-1c0-0.1,0-0.2,0-0.3V17c-0.1-0.6,0.4-1.1,1-1.2
			c0.1,0,0.2,0,0.2,0h0.9c0.6-0.1,1.2,0.4,1.2,1c0,0.1,0,0.2,0,0.2V17.9z"/>
		<path class="st1" d="M81,15.8c0.1,0,0.1,0,0.1,0.1v0.8c0,0.1,0,0.1-0.1,0.1c0,0,0,0,0,0h-1v5.5c0,0.1,0,0.1-0.1,0.1H79
			c-0.1,0-0.1,0-0.1-0.1c0,0,0,0,0,0v-5.5h-0.9c-0.1,0-0.1,0-0.1-0.1c0,0,0,0,0,0v-0.8c0-0.1,0-0.1,0.1-0.1c0,0,0,0,0,0H81z"/>
		<path class="st1" d="M89.3,19.1c0.1,0.5-0.2,0.9-0.6,1.1l0.6,2.2c0,0.1,0,0.2-0.1,0.2h-0.9c-0.1,0-0.1-0.1-0.1-0.1l-0.6-2.1H87
			v2.1c0,0.1,0,0.1-0.1,0.1c0,0,0,0,0,0h-0.9c-0.1,0-0.1,0-0.1-0.1c0,0,0,0,0,0v-6.5c0-0.1,0-0.1,0.1-0.1c0,0,0,0,0,0H88
			c0.6-0.1,1.2,0.3,1.3,0.9c0,0.1,0,0.2,0,0.3V19.1z M87.8,19.2c0.2,0,0.3-0.1,0.3-0.3c0,0,0,0,0-0.1v-1.6c0-0.2-0.1-0.3-0.3-0.3
			c0,0,0,0-0.1,0H87v2.3H87.8z"/>
		<path class="st1" d="M93.5,17c-0.1-0.6,0.3-1.1,0.9-1.2c0.1,0,0.2,0,0.3,0h1c0.6,0,1.1,0.4,1.2,1c0,0.1,0,0.1,0,0.2v4.3
			c0.1,0.6-0.3,1.1-0.9,1.2c-0.1,0-0.2,0-0.3,0h-1c-0.6,0.1-1.1-0.4-1.2-1c0-0.1,0-0.2,0-0.3L93.5,17z M95.5,21.5
			c0.2,0,0.3-0.1,0.3-0.3c0,0,0-0.1,0-0.1v-3.9c0-0.2-0.1-0.3-0.3-0.3c0,0,0,0-0.1,0H95c-0.2,0-0.3,0.1-0.3,0.3c0,0,0,0,0,0.1v3.9
			c0,0.2,0.1,0.3,0.3,0.3c0,0,0.1,0,0.1,0L95.5,21.5z"/>
		<path class="st1" d="M104.6,15.8c0.1,0,0.1,0,0.1,0.1c0,0,0,0,0,0v6.5c0,0.1,0,0.1-0.1,0.1c0,0,0,0,0,0h-0.8c-0.1,0-0.1,0-0.2-0.1
			l-1.3-3.6l0,0v3.6c0,0.1,0,0.1-0.1,0.1c0,0,0,0,0,0h-0.9c-0.1,0-0.1,0-0.1-0.1v-6.5c0-0.1,0-0.1,0.1-0.1c0,0,0,0,0,0h0.8
			c0.1,0,0.1,0,0.2,0.1l1.3,3.6l0,0v-3.6c0-0.1,0-0.1,0.1-0.1c0,0,0,0,0,0H104.6z"/>
		<path class="st1" d="M110,15.8c0.1,0,0.1,0,0.1,0.1c0,0,0,0,0,0v6.5c0,0.1,0,0.1-0.1,0.1c0,0,0,0,0,0h-0.9c-0.1,0-0.1,0-0.1-0.1
			c0,0,0,0,0,0v-6.5c0-0.1,0-0.1,0.1-0.1c0,0,0,0,0,0H110z"/>
		<path class="st1" d="M117.8,17.9c0,0.1,0,0.1-0.1,0.1c0,0,0,0,0,0h-0.8c-0.1,0-0.1,0-0.1-0.1c0,0,0,0,0,0v-0.7
			c0-0.2-0.1-0.3-0.3-0.3c0,0,0,0-0.1,0h-0.4c-0.2,0-0.3,0.1-0.3,0.2c0,0,0,0.1,0,0.1v3.9c0,0.2,0.1,0.3,0.3,0.3h0.4
			c0.2,0,0.3-0.1,0.3-0.3c0,0,0-0.1,0-0.1v-0.7c0-0.1,0-0.1,0.1-0.1h0.8c0.1,0,0.1,0,0.1,0.1c0,0,0,0,0,0v0.9c0.1,0.6-0.4,1.1-1,1.2
			c-0.1,0-0.2,0-0.3,0h-0.9c-0.6,0.1-1.1-0.4-1.2-1c0-0.1,0-0.2,0-0.3V17c-0.1-0.6,0.3-1.1,0.9-1.2c0.1,0,0.2,0,0.3,0h0.9
			c0.6,0,1.1,0.4,1.2,1c0,0.1,0,0.1,0,0.2V17.9z"/>
		<path class="st1" d="M124.2,15.8c0.6-0.1,1.1,0.4,1.2,1c0,0.1,0,0.2,0,0.2v0.9c0,0.1,0,0.1-0.1,0.1h-0.9c-0.1,0-0.1,0-0.1-0.1
			v-0.7c0-0.2-0.1-0.3-0.3-0.3h-0.4c-0.2,0-0.3,0.1-0.3,0.3c0,0,0,0,0,0.1v1.2l2,0.7c0.1,0,0.2,0.2,0.2,0.3v2
			c0.1,0.6-0.3,1.1-0.9,1.2c-0.1,0-0.2,0-0.3,0h-1c-0.6,0.1-1.1-0.4-1.2-1c0-0.1,0-0.2,0-0.3v-0.9c0-0.1,0-0.1,0.1-0.1c0,0,0,0,0,0
			h0.9c0.1,0,0.1,0,0.1,0.1v0.6c0,0.2,0.1,0.3,0.3,0.3c0,0,0.1,0,0.1,0h0.4c0.2,0,0.3-0.1,0.3-0.3c0,0,0,0,0-0.1V20l-2-0.7
			c-0.1,0-0.2-0.2-0.2-0.3v-2c-0.1-0.6,0.3-1.1,0.9-1.2c0.1,0,0.2,0,0.3,0L124.2,15.8z"/>
		<path class="st1" d="M50.9,33.7c0,0.1,0,0.1-0.1,0.1c0,0,0,0,0,0h-0.9c-0.1,0-0.1,0-0.1-0.1c0,0,0,0,0,0v-0.7
			c0-0.2-0.1-0.3-0.3-0.3c0,0,0,0-0.1,0H49c-0.2,0-0.3,0.1-0.3,0.3c0,0,0,0,0,0.1v3.9c0,0.2,0.1,0.3,0.3,0.3c0,0,0,0,0.1,0h0.4
			c0.2,0,0.3-0.1,0.3-0.3c0,0,0,0,0-0.1v-0.7c0-0.1,0-0.1,0.1-0.1c0,0,0,0,0,0h0.8c0.1,0,0.1,0,0.1,0.1c0,0,0,0,0,0v0.9
			c0.1,0.6-0.4,1.1-1,1.2c-0.1,0-0.2,0-0.3,0h-1c-0.6,0.1-1.1-0.3-1.2-0.9c0-0.1,0-0.2,0-0.3v-4.3c-0.1-0.6,0.3-1.1,0.9-1.2
			c0.1,0,0.2,0,0.3,0h1c0.6-0.1,1.2,0.3,1.2,0.9c0,0.1,0,0.2,0,0.3V33.7z"/>
		<path class="st1" d="M55.2,32.8c-0.1-0.6,0.3-1.1,0.9-1.2c0.1,0,0.2,0,0.3,0h0.9c0.6-0.1,1.1,0.3,1.2,0.9c0,0.1,0,0.2,0,0.3v4.3
			c0.1,0.6-0.4,1.1-1,1.2c-0.1,0-0.2,0-0.3,0h-0.9c-0.6,0.1-1.1-0.3-1.2-0.9c0-0.1,0-0.2,0-0.3V32.8z M57.2,37.3
			c0.2,0,0.3-0.1,0.3-0.3c0,0,0-0.1,0-0.1V33c0-0.2-0.1-0.3-0.3-0.3c0,0,0,0-0.1,0h-0.5c-0.2,0-0.3,0.1-0.3,0.3c0,0,0,0,0,0.1v3.9
			c0,0.2,0.1,0.3,0.3,0.3L57.2,37.3z"/>
		<path class="st1" d="M63.9,37.3h2c0.1,0,0.1,0,0.1,0.1c0,0,0,0,0,0v0.8c0,0.1,0,0.1-0.1,0.1h-3c-0.1,0-0.1,0-0.1-0.1c0,0,0,0,0,0
			v-6.5c0-0.1,0-0.1,0.1-0.1c0,0,0,0,0,0h0.9c0.1,0,0.1,0,0.1,0.1c0,0,0,0,0,0L63.9,37.3z"/>
		<path class="st1" d="M71.5,37.3h2c0.1,0,0.1,0,0.1,0.1v0.8c0,0.1,0,0.1-0.1,0.1h-3c-0.1,0-0.1,0-0.1-0.1c0,0,0,0,0,0v-6.5
			c0-0.1,0-0.1,0.1-0.1c0,0,0,0,0,0h0.9c0.1,0,0.1,0,0.1,0.1c0,0,0,0,0,0L71.5,37.3z"/>
		<path class="st1" d="M81.2,32.6c0,0.1,0,0.1-0.1,0.1H79v1.7h1.6c0.1,0,0.1,0.1,0.1,0.1c0,0,0,0,0,0v0.8c0,0.1,0,0.1-0.1,0.1
			c0,0,0,0,0,0H79v1.7h2.1c0.1,0,0.1,0,0.1,0.1v0.8c0,0.1,0,0.1-0.1,0.1H78c-0.1,0-0.1,0-0.1-0.1c0,0,0,0,0,0v-6.5
			c0-0.1,0-0.1,0.1-0.1c0,0,0,0,0,0h3.1c0.1,0,0.1,0,0.1,0.1L81.2,32.6z"/>
		<path class="st1" d="M85.4,32.8c-0.1-0.6,0.3-1.1,0.9-1.2c0.1,0,0.2,0,0.3,0h1.1c0.6-0.1,1.1,0.3,1.2,0.9c0,0.1,0,0.2,0,0.3v0.9
			c0,0.1,0,0.1-0.1,0.1c0,0,0,0,0,0H88c-0.1,0-0.1,0-0.1-0.1v-0.6c0-0.2-0.1-0.3-0.3-0.3c0,0,0,0-0.1,0h-0.6c-0.2,0-0.3,0.1-0.3,0.3
			c0,0,0,0,0,0.1v3.9c0,0.2,0.1,0.3,0.3,0.3c0,0,0.1,0,0.1,0h0.6c0.2,0,0.3-0.1,0.3-0.3c0,0,0-0.1,0-0.1v-1.1h-0.4
			c-0.1,0-0.1,0-0.1-0.1v-0.8c0-0.1,0-0.1,0.1-0.1h1.5c0.1,0,0.1,0,0.1,0.1v2.4c0.1,0.6-0.4,1.1-1,1.2c-0.1,0-0.2,0-0.3,0h-1.2
			c-0.6,0.1-1.1-0.3-1.2-0.9c0-0.1,0-0.2,0-0.3V32.8z"/>
		<path class="st1" d="M96.6,32.6c0,0.1,0,0.1-0.1,0.1c0,0,0,0,0,0h-2.1v1.7H96c0.1,0,0.1,0,0.1,0.1c0,0,0,0,0,0v0.8
			c0,0.1,0,0.2-0.1,0.2h-1.6v1.7h2.1c0.1,0,0.1,0,0.1,0.1v0.8c0,0.1,0,0.1-0.1,0.1h-3.1c-0.1,0-0.1,0-0.1-0.1c0,0,0,0,0,0v-6.5
			c0-0.1,0-0.1,0.1-0.1c0,0,0,0,0,0h3.1c0.1,0,0.1,0,0.1,0.1L96.6,32.6z"/>
		<path class="st1" d="M95.2,65.9h-8.6c-1,0-1.7-0.8-1.7-1.8V48.7c0-1,0.8-1.8,1.8-1.8h9c1,0,1.8,0.8,1.8,1.8v3.7h-3.5v-2.2h-5.6
			v12.4h5.1v-4.1H97v5.6C97,65.1,96.2,65.9,95.2,65.9C95.2,65.9,95.2,65.9,95.2,65.9z"/>
		<path class="st1" d="M95.2,66.1h-8.6c-1.1,0-1.9-0.9-1.9-1.9c0,0,0,0,0,0V48.7c0-1.1,0.9-1.9,1.9-1.9h9c1.1,0,1.9,0.9,1.9,1.9v3.9
			h-3.8v-2.2h-5.2v12h4.8v-4h3.8v5.8C97.2,65.2,96.3,66,95.2,66.1C95.2,66.1,95.2,66.1,95.2,66.1z M86.6,47.1
			c-0.9,0-1.6,0.7-1.6,1.5c0,0,0,0,0,0v15.5c0,0.9,0.7,1.6,0.5,1.6h8.6c1.9,0,2.6-0.7,2.6-1.6v-5.4h-3.1v4.1h-5.5V50h5.9v2.2h3.1
			v-3.5c0-0.9-0.7-1.6-1.6-1.6H86.6z"/>
		<path class="st1" d="M65.2,60.7c0,0.3-0.1,0.5-0.4,0.5h-6.6v5.5h6.1c0.2,0,0.4,0.2,0.4,0.4c0,0,0,0,0,0.1v2.6
			c0,0.2-0.1,0.4-0.3,0.4c0,0,0,0-0.1,0h-6.1v5.4h6.6c0.3,0,0.4,0.1,0.4,0.4v2.7c0,0.3-0.1,0.4-0.4,0.4H55c-0.2,0-0.4-0.1-0.4-0.4
			c0,0,0,0,0-0.1V58.4c0-0.2,0.1-0.4,0.3-0.4c0,0,0,0,0.1,0h9.8c0.2,0,0.4,0.1,0.4,0.3c0,0,0,0.1,0,0.1V60.7z"/>
		<path class="st1" d="M22,69.1V38.9H11.1c-0.2,0-0.4-0.1-0.5-0.3c0,0,0-0.1,0-0.1v-5.2c0-0.2,0.1-0.4,0.3-0.5c0,0,0.1,0,0.1,0h26.6
			c0.3,0,0.5,0.1,0.5,0.5v5.2c0,0.3-0.1,0.5-0.5,0.5H27.2v30.2H22z"/>
	</g>
</g>
</svg>
